<?xml version="1.0" encoding="UTF-8"?>
<!DOCTYPE svg PUBLIC "-//W3C//DTD SVG 1.1//EN" "http://www.w3.org/Graphics/SVG/1.1/DTD/svg11.dtd">
<svg xmlns="http://www.w3.org/2000/svg" style="background: transparent; background-color: transparent; color-scheme: light;" xmlns:xlink="http://www.w3.org/1999/xlink" version="1.1" width="47px" height="50px" viewBox="0 0 47 50"><defs/><g><g data-cell-id="0"><g data-cell-id="1"><g data-cell-id="GxKN4E7oZEfdlFyxq9VF-2"><g><rect x="-1" y="-1" width="47" height="50" fill="none" stroke="none" pointer-events="all"/><path d="M 32.87 11.5 L 24.92 18.59 L 31.83 18.59 L 18.35 30.76 L 23.88 20.62 L 17.66 20.62 L 24.57 10.49 L 32.87 10.49 L 32.87 11.5 Z M 11.79 43.59 C 11.79 45.28 11.1 46.97 10.4 47.65 C 9.37 48.66 7.29 49 7.29 49 L 41.16 49 L 42.2 49 C 42.2 49 42.2 49 42.2 49 C 43.24 49 44.27 48.32 44.96 47.31 C 45.65 46.3 46 44.95 46 43.26 L 37.36 43.26 L 11.79 43.59 L 11.79 43.59 Z M 7.29 49 M 9.02 46.3 C 9.71 45.62 10.06 44.61 10.06 43.26 L 10.06 41.57 L 11.79 41.57 L 37.01 41.57 C 37.01 40.89 37.01 40.22 37.01 39.88 C 37.01 31.09 44.96 18.26 44.96 8.12 C 44.96 0.01 37.01 -1 37.01 -1 L 8.68 -1 L 2.46 -1 C 2.46 -1 8.68 0.35 10.06 5.76 C 10.4 6.43 10.4 7.11 10.4 8.12 C 10.4 18.26 2.46 31.09 2.46 39.88 C 2.46 40.89 2.46 42.24 2.8 43.26 C 3.15 44.27 3.49 44.95 4.18 45.62 C 4.53 45.96 4.88 46.3 5.57 46.64 C 5.91 46.97 6.26 47.31 6.95 47.31 C 7.64 47.31 8.33 46.97 9.02 46.3 Z M 7.64 4.41 C 6.95 3.73 6.26 3.05 5.57 2.38 C 3.84 1.36 2.11 0.69 2.11 0.69 L -0.31 0.01 C -0.65 0.69 -1 1.03 -1 2.04 C -1 5.08 0.04 5.76 0.04 5.76 L 8.33 5.76 C 7.99 5.42 7.99 5.08 7.64 4.41 Z" fill="#f0f0f0" style="fill: rgb(240, 240, 240);" stroke="none" pointer-events="all"/></g></g><g data-cell-id="GxKN4E7oZEfdlFyxq9VF-3"><g><rect x="14.5" y="7" width="20" height="30" fill="#f0f0f0" style="fill: rgb(240, 240, 240);" stroke="none" pointer-events="all"/></g></g></g></g></g></svg>